<svg version="1.1" viewBox="0 0 135 225" xmlns="http://www.w3.org/2000/svg">
 <path d="m15.861 178.49c-17.093-6.9987-11.228-30.45 6.7919-27.155 16.3 2.9806 15.806 23.779-0.67224 28.294-1.1 0.30139-3.8539-0.21105-6.1197-1.1388zm48.62 1.1028c-11.128-3.951-15.305-13.206-9.9035-21.946 7.7606-12.557 28.9-5.035 26.55 9.4472-1.1824 7.2861-10.861 14.553-16.646 12.499zm44.684-0.74661c-8.9453-3.1709-13.142-11.919-9.2788-19.343 7.1628-13.767 27.595-9.4725 27.595 5.7997 0 9.4044-9.7189 16.591-18.316 13.543zm-94.775-48.363c-12.828-5.4814-11.343-23.067 2.3079-27.319 7.9092-2.4634 17.832 4.8951 18.073 13.403 0.28054 9.8968-11.293 17.799-20.381 13.916zm45.347-0.82437c-10.367-5.1105-9.4467-20.729 1.5062-25.574 5.5902-2.4728 10.04-1.7708 14.698 2.3184 13.022 11.434-0.58151 30.958-16.204 23.256zm46.048-0.31134c-8.9596-5.463-9.5744-16.432-1.3108-23.385 11.806-9.9345 28.557 4.5226 21.179 18.279-3.5341 6.5898-13.313 9.1027-19.868 5.1057z"/>
</svg>
